<?xml version="1.0" encoding="UTF-8" standalone="no"?>
<!-- Created with Inkscape (http://www.inkscape.org/) -->

<svg
   xmlns:dc="http://purl.org/dc/elements/1.1/"
   xmlns:cc="http://creativecommons.org/ns#"
   xmlns:rdf="http://www.w3.org/1999/02/22-rdf-syntax-ns#"
   xmlns:svg="http://www.w3.org/2000/svg"
   xmlns="http://www.w3.org/2000/svg"
   xmlns:sodipodi="http://sodipodi.sourceforge.net/DTD/sodipodi-0.dtd"
   xmlns:inkscape="http://www.inkscape.org/namespaces/inkscape"
   version="1.1"
   id="svg815"
   width="200"
   height="200"
   viewBox="0 0 200 200"
   sodipodi:docname="0012.svg"
   inkscape:version="0.92.4 (5da689c313, 2019-01-14)">
  <metadata
     id="metadata821">
    <rdf:RDF>
      <cc:Work
         rdf:about="">
        <dc:format>image/svg+xml</dc:format>
        <dc:type
           rdf:resource="http://purl.org/dc/dcmitype/StillImage" />
        <dc:title></dc:title>
      </cc:Work>
    </rdf:RDF>
  </metadata>
  <defs
     id="defs819">
    <clipPath
       clipPathUnits="userSpaceOnUse"
       id="clipPath2273">
      <rect
         id="rect2275"
         width="171.39639"
         height="171.17117"
         x="14.864865"
         y="14.414414" />
    </clipPath>
  </defs>
  <sodipodi:namedview
     pagecolor="#ffffff"
     bordercolor="#666666"
     borderopacity="1"
     objecttolerance="10"
     gridtolerance="10"
     guidetolerance="10"
     inkscape:pageopacity="0"
     inkscape:pageshadow="2"
     inkscape:window-width="1920"
     inkscape:window-height="1057"
     id="namedview817"
     showgrid="false"
     inkscape:pagecheckerboard="true"
     inkscape:zoom="4.44"
     inkscape:cx="101.8018"
     inkscape:cy="100"
     inkscape:window-x="-8"
     inkscape:window-y="-8"
     inkscape:window-maximized="1"
     inkscape:current-layer="svg815" />
  <path
     style="fill:#000000"
     d="m 0,191.5 c 0,-5 0.41176471,-8.5 1,-8.5 0.5777778,0 1,3.16667 1,7.5 v 7.5 h 7.5 c 4.333333,0 7.5,0.42222 7.5,1 0,0.58824 -3.5,1 -8.5,1 H 0 Z m 182.47518,7.54016 C 182.82875,198.46807 186.46648,198 190.55902,198 H 198 v -7.5 c 0,-4.52769 0.41234,-7.5 1.04044,-7.5 0.65999,0 0.93424,3.01678 0.75,8.25 l -0.29044,8.25 -8.83383,0.29016 c -5.92917,0.19474 -8.62246,-0.0519 -8.19099,-0.75 z M 47.250674,182.45486 C 41.235047,180.83499 34,177.36631 34,176.10212 c 0,-0.47148 0.679969,-1.42155 1.511042,-2.11128 1.237596,-1.02712 2.623842,-0.75466 7.660315,1.50557 8.017589,3.59808 16.536748,4.31178 24.351257,2.04004 5.599707,-1.62788 5.939913,-1.62439 7.181524,0.0736 1.666662,2.2793 0.98446,2.86024 -5.635639,4.79915 -6.585482,1.92877 -14.76104,1.94587 -21.817825,0.0456 z m 34.202825,-9.60137 c -0.456207,-1.43738 -0.175407,-2.42961 0.849969,-3.00344 3.005048,-1.68171 8.966621,-11.04401 10.815888,-16.98572 C 94.15371,149.54095 95,144.6119 95,141.91091 95,137.26847 95.144481,137 97.642893,137 h 2.642897 l -0.548284,7.99924 c -0.654962,9.55569 -4.221553,17.98594 -10.68285,25.25076 -4.635204,5.21163 -6.563717,5.87217 -7.601157,2.60349 z m -56.675414,-5.08883 c -7.297458,-9.59992 -10.176728,-21.66762 -8.12791,-34.06597 0.519437,-3.14336 0.99352,-3.74916 2.738994,-3.5 1.978529,0.28242 2.090566,0.80273 1.787507,8.30131 -0.374283,9.26089 2.009513,18.43319 6.227995,23.9639 2.914516,3.82113 3.234438,5.7608 1.2252,7.42832 -1.078146,0.89478 -1.898985,0.44138 -3.851786,-2.12756 z m 26.144992,-18.68774 c -9.388506,-9.3885 4.576116,-23.51982 14.227992,-14.39783 3.265927,3.08663 4.076809,6.83976 2.363634,10.93996 -2.885556,6.90611 -11.374253,8.67525 -16.591626,3.45787 z M 61.8,145.8 c 0.66,-0.66 1.2,-2.37 1.2,-3.8 0,-3.30476 -1.695242,-5 -5,-5 -3.304758,0 -5,1.69524 -5,5 0,3.30476 1.695242,5 5,5 1.43,0 3.14,-0.54 3.8,-1.2 z M 91.049649,125.37933 C 87.430372,117.19736 73.4421,106.04713 66.75,106.00977 c -1.852489,-0.0103 -2.132375,-0.84974 -1.143011,-3.42798 0.887587,-2.31302 3.117068,-1.96341 10.393011,1.62976 3.575,1.76548 6.875378,3.39025 7.334174,3.6106 0.458796,0.22035 -0.799692,-2.06015 -2.796641,-5.06777 C 76.774353,97.086621 72.057908,85.177396 72.021092,81.25 72.004994,79.532701 72.57108,79 74.412102,79 c 2.028773,0 2.517908,0.626257 3.077884,3.940728 1.048033,6.203254 7.00476,17.604792 11.972036,22.915212 4.908933,5.24805 5.299011,6.26757 3.097191,8.09492 -1.229505,1.0204 -0.936219,2.11369 2,7.45549 C 96.451646,124.84921 98,127.91376 98,128.21647 c 0,0.30271 -1.131036,0.76659 -2.513413,1.03084 -2.177249,0.41621 -2.77068,-0.10112 -4.436938,-3.86798 z M 122.5,128.37416 c -10.48744,-2.0652 -13.7063,-2.93732 -18.25,-4.94469 -5.2051,-2.29958 -6.312945,-3.96653 -4.10411,-6.17536 0.8612,-0.8612 2.04883,-0.68526 4.7801,0.70813 6.51486,3.32364 14.79839,5.14736 24.27476,5.3444 8.61917,0.17922 9.32123,0.34729 9.59976,2.29809 0.26401,1.84906 -0.34335,2.18205 -5,2.7413 -5.57763,0.66987 -8.01088,0.67592 -11.30051,0.0281 z m 23.98935,-5.40773 c -0.80202,-2.52691 -1.20003,-2.11778 5.17493,-5.31954 6.20861,-3.11821 15.88847,-11.88521 19.33572,-17.51227 2.5853,-4.220066 3.51576,-4.727144 5.90192,-3.216398 3.43187,2.172813 -8.99227,16.985198 -19.58878,23.354268 -8.06725,4.84885 -9.98812,5.32693 -10.82379,2.69394 z m -123.273165,-0.30912 -2.283815,-1.26387 2.862211,-3.94672 c 6.53344,-9.009 18.313673,-16.08635 28.530913,-17.14086 5.389064,-0.556205 5.441112,-0.535771 4.965984,1.94971 -0.40773,2.1329 -1.182462,2.60636 -5.13582,3.13867 -9.007639,1.21286 -19.911,8.27201 -25.201755,16.31635 -1.279171,1.94492 -1.728376,2.05869 -3.737718,0.94672 z M 178.65722,89.292806 c -1.3825,-0.356499 -1.66684,-1.014413 -1.13839,-2.633999 C 177.90625,85.471463 178.43277,79.775 178.68887,74 c 0.3813,-8.5979 0.10733,-11.635453 -1.51234,-16.767947 -1.91217,-6.059399 -1.91693,-6.300621 -0.143,-7.25 C 178.04277,49.441924 179.10502,49 179.39408,49 c 1.61557,0 4.78375,14.292399 4.87672,22 0.0975,8.083453 -1.72831,19.132363 -3.12054,18.883999 -0.35764,-0.0638 -1.47951,-0.329838 -2.49304,-0.591193 z m -53.33033,-7.014024 c -1.19521,-0.218753 -3.33271,-1.557332 -4.75,-2.974621 C 114.17347,72.900744 118.90805,62 128.0927,62 c 3.1553,0 4.71314,0.651996 6.98422,2.923077 7.19037,7.190371 0.43274,19.219402 -9.75003,17.355705 z M 131.8,75.8 c 0.66,-0.66 1.2,-2.37 1.2,-3.8 0,-3.354834 -1.70339,-5 -5.17695,-5 -1.85859,0 -3.31866,0.826766 -4.41501,2.5 -1.51741,2.315871 -1.51741,2.684129 0,5 1.78478,2.723915 6.2728,3.419156 8.39196,1.3 z M 71.495467,66.25 C 72.637761,57.470412 76.317876,47.69229 81.261962,40.300266 83.947456,36.28512 86.625017,33 87.212097,33 c 0.58708,0 1.636034,0.777629 2.331009,1.728064 1.073367,1.467916 0.826232,2.22619 -1.641617,5.036916 C 82.683095,45.708401 77.036335,58.879863 77.010824,65.168213 76.993715,69.38569 75.975299,71 73.331738,71 70.983748,71 70.90422,70.794279 71.495467,66.25 Z M 166.52565,38.275014 c -5.4441,-6.174841 -14.78068,-12.671927 -20.80297,-14.476248 -4.08778,-1.224726 -5.3406,-2.746096 -4.36182,-5.296761 0.49496,-1.289858 1.37823,-1.198661 6.35699,0.656354 9.58621,3.571688 17.26466,9.040719 23.98303,17.082076 3.79108,4.537629 3.97159,5.329305 1.51489,6.644087 -1.45917,0.780927 -2.67799,-0.05884 -6.69012,-4.609508 z M 94.936747,28.423785 C 93.479452,26.667851 93.360818,26.792969 100.5,22.556463 c 5.43023,-3.222386 12.25479,-5.387082 20.80809,-6.600158 9.31016,-1.320418 12.54874,-0.658189 11.95559,2.444695 -0.40422,2.114501 -0.98628,2.316245 -6.97727,2.418335 -7.8214,0.13328 -15.83199,2.294452 -23.21399,6.26289 -6.316765,3.395784 -6.417089,3.412327 -8.135673,1.34156 z M 0.20984439,9.3338345 0.5,0.5 8.75,0.20955766 c 5.233222,-0.18423628 8.25,0.0900163 8.25,0.75 C 17,1.5876637 14.027685,2 9.5,2 H 2 v 7.440983 c 0,4.092541 -0.46807,7.730266 -1.04015561,8.083835 -0.69814002,0.431474 -0.94474898,-2.261819 -0.75,-8.1909835 z M 198,10.2 V 2 h -8.2 c -5.70136,0 -7.88162,-0.318381 -7.15514,-1.04485704 0.60452,-0.60452483 4.3763,-0.92059597 8.95,-0.75 L 199.5,0.5 l 0.29486,7.905143 c 0.17059,4.573693 -0.14548,8.345475 -0.75,8.95 C 198.31838,18.081619 198,15.901358 198,10.2 Z"
     id="path825"
     inkscape:connector-curvature="0"
     clip-path="url(#clipPath2273)" />
</svg>
