<?xml version="1.0" encoding="UTF-8" standalone="no"?>
<!-- Created with Inkscape (http://www.inkscape.org/) -->

<svg
   xmlns:dc="http://purl.org/dc/elements/1.1/"
   xmlns:cc="http://creativecommons.org/ns#"
   xmlns:rdf="http://www.w3.org/1999/02/22-rdf-syntax-ns#"
   xmlns:svg="http://www.w3.org/2000/svg"
   xmlns="http://www.w3.org/2000/svg"
   xmlns:sodipodi="http://sodipodi.sourceforge.net/DTD/sodipodi-0.dtd"
   xmlns:inkscape="http://www.inkscape.org/namespaces/inkscape"
   version="1.1"
   id="svg3723"
   width="200"
   height="200"
   viewBox="0 0 200 200"
   sodipodi:docname="1166B.svg"
   inkscape:version="0.92.4 (5da689c313, 2019-01-14)">
  <metadata
     id="metadata3729">
    <rdf:RDF>
      <cc:Work
         rdf:about="">
        <dc:format>image/svg+xml</dc:format>
        <dc:type
           rdf:resource="http://purl.org/dc/dcmitype/StillImage" />
        <dc:title />
      </cc:Work>
    </rdf:RDF>
  </metadata>
  <defs
     id="defs3727">
    <clipPath
       clipPathUnits="userSpaceOnUse"
       id="clipPath2834">
      <ellipse
         id="ellipse2836"
         cx="99.436943"
         cy="102.13964"
         rx="84.572075"
         ry="85.923424" />
    </clipPath>
    <clipPath
       clipPathUnits="userSpaceOnUse"
       id="clipPath2840">
      <rect
         id="rect2842"
         width="168.01802"
         height="168.01802"
         x="15.765766"
         y="15.990991" />
    </clipPath>
  </defs>
  <sodipodi:namedview
     pagecolor="#ffffff"
     bordercolor="#666666"
     borderopacity="1"
     objecttolerance="10"
     gridtolerance="10"
     guidetolerance="10"
     inkscape:pageopacity="0"
     inkscape:pageshadow="2"
     inkscape:window-width="1920"
     inkscape:window-height="1057"
     id="namedview3725"
     showgrid="false"
     inkscape:pagecheckerboard="true"
     inkscape:zoom="4.44"
     inkscape:cx="69.396803"
     inkscape:cy="100"
     inkscape:window-x="-8"
     inkscape:window-y="-8"
     inkscape:window-maximized="1"
     inkscape:current-layer="svg3723" />
  <path
     style="fill:#000000"
     d="m 0,191.5 c 0,-5 0.41176471,-8.5 1,-8.5 0.5777778,0 1,3.16667 1,7.5 v 7.5 h 7.5 c 4.333333,0 7.5,0.42222 7.5,1 0,0.58824 -3.5,1 -8.5,1 H 0 Z m 182.47518,7.54016 C 182.82875,198.46807 186.46648,198 190.55902,198 H 198 v -7.5 c 0,-4.52769 0.41234,-7.5 1.04044,-7.5 0.65999,0 0.93424,3.01678 0.75,8.25 l -0.29044,8.25 -8.83383,0.29016 c -5.92917,0.19474 -8.62246,-0.0519 -8.19099,-0.75 z M 93.475375,179.75 c -0.254021,-0.6875 -1.293766,-3.72037 -2.310544,-6.73971 l -1.848687,-5.48971 -6.599822,-1.88738 -6.599822,-1.88738 -5.48412,4.68523 -5.484119,4.68523 -3.824131,-1.97986 c -7.602994,-3.93628 -7.541576,-3.82115 -6.21512,-11.65029 l 1.183629,-6.98613 -4.743668,-4.71577 -4.743668,-4.71577 -7.140554,1.50206 c -3.927305,0.82614 -7.266638,1.14823 -7.42074,0.71577 -0.154103,-0.43246 -1.59,-3.01218 -3.190883,-5.73271 l -2.910696,-4.94642 4.913152,-5.67132 4.913152,-5.67132 -1.425651,-4.38226 C 33.758975,116.47202 32.97851,113.63807 32.808716,112.58461 32.58742,111.2116 30.659384,110.0548 26,108.49946 l -6.5,-2.16974 V 99.5 92.670283 L 26,90.500536 c 4.659384,-1.555336 6.58742,-2.712132 6.808716,-4.085141 0.169794,-1.053467 0.950259,-3.887411 1.734367,-6.297653 l 1.425651,-4.382259 -4.895465,-5.650908 C 25.738401,63.926459 25.762816,64.617656 30.606414,56.867641 l 2.270149,-3.63236 7.01925,1.444241 7.019251,1.444241 4.632493,-4.811881 c 4.957919,-5.149909 5.024138,-5.514605 2.892794,-15.931853 -0.605059,-2.957307 -0.346286,-3.287066 4.963412,-6.324968 l 5.601751,-3.204997 5.468571,4.671947 5.468571,4.671946 6.162207,-1.563847 c 3.389214,-0.860115 6.439616,-1.835366 6.778672,-2.167223 0.339056,-0.331857 1.553141,-3.384267 2.697968,-6.783132 L 93.663006,18.5 l 6.596644,-0.294052 6.59664,-0.294052 2.24341,6.965572 2.24341,6.965573 6.35898,1.597323 C 124.65242,35.186232 125.91586,34.884151 130,30.5 c 4.46777,-4.795963 5.56625,-4.935936 11.29397,-1.439127 2.86332,1.74807 5.2861,3.242063 5.38396,3.319985 0.0979,0.07792 -0.47748,3.268403 -1.27854,7.089957 l -1.45648,6.948281 4.8375,4.837502 4.8375,4.837502 4.94104,-1.05467 c 2.71758,-0.580068 5.92038,-1.27649 7.11734,-1.547603 1.78894,-0.405197 2.72338,0.463263 5.25,4.879347 1.69054,2.954753 3.07371,5.639981 3.07371,5.967173 0,0.327191 -2.025,2.874935 -4.5,5.661653 -2.475,2.786718 -4.49389,5.389239 -4.48642,5.78338 0.007,0.394141 0.81208,3.384019 1.78802,6.644173 l 1.77444,5.927553 6.46198,2.157588 6.46198,2.157589 V 99.5 v 6.82972 l -6.48648,2.16576 -6.48647,2.16577 -1.90566,6.66372 -1.90565,6.66373 4.64213,4.96281 c 2.55317,2.72954 4.64213,5.26481 4.64213,5.63392 0,0.36912 -1.38317,3.08864 -3.07371,6.0434 -2.52662,4.41608 -3.46106,5.28454 -5.25,4.87934 -1.19696,-0.27111 -4.39976,-0.96753 -7.11734,-1.5476 l -4.94104,-1.05467 -4.85601,4.856 -4.856,4.85601 1.05467,4.94104 c 0.58007,2.71758 1.27431,5.91169 1.54275,7.09802 0.40107,1.77241 -0.49603,2.71236 -5.03184,5.27222 -6.04641,3.41238 -7.08134,3.28344 -11.47148,-1.42919 -4.08414,-4.38415 -5.34758,-4.68623 -12.29791,-2.94036 l -6.35898,1.59732 -2.22922,6.92152 L 106.88466,181 h -6.47371 c -4.265986,0 -6.631226,-0.42629 -6.935575,-1.25 z M 114.5399,155.47838 c 16.04647,-4.09668 31.13635,-16.27191 37.95027,-30.6201 C 158.64412,111.89981 160.19235,100.34454 157.4956,87.5 154.15627,71.594808 142.15128,55.421356 128.31395,48.185648 120.50167,44.100512 108.50032,41 100.5,41 86.580005,41 71.070412,47.265926 60.526738,57.149328 27.315398,88.280887 41.688205,143.72676 86,155.41734 c 7.287091,1.92252 21.1326,1.95213 28.5399,0.061 z M 0.20984439,9.3338345 0.5,0.5 8.75,0.20955766 c 5.233222,-0.18423628 8.25,0.0900163 8.25,0.75 C 17,1.5876637 14.027685,2 9.5,2 H 2 v 7.440983 c 0,4.092541 -0.46807,7.730266 -1.04015561,8.083835 -0.69814002,0.431474 -0.94474898,-2.261819 -0.75,-8.1909835 z M 198,10.2 V 2 h -8.2 c -5.70136,0 -7.88162,-0.318381 -7.15514,-1.04485704 0.60452,-0.60452483 4.3763,-0.92059597 8.95,-0.75 L 199.5,0.5 l 0.29486,7.905143 c 0.17059,4.573693 -0.14548,8.345475 -0.75,8.95 C 198.31838,18.081619 198,15.901358 198,10.2 Z"
     id="path4538"
     inkscape:connector-curvature="0"
     clip-path="url(#clipPath2840)" />
</svg>
