<?xml version="1.0" encoding="UTF-8" standalone="no"?>
<!-- Created with Inkscape (http://www.inkscape.org/) -->

<svg
   xmlns:dc="http://purl.org/dc/elements/1.1/"
   xmlns:cc="http://creativecommons.org/ns#"
   xmlns:rdf="http://www.w3.org/1999/02/22-rdf-syntax-ns#"
   xmlns:svg="http://www.w3.org/2000/svg"
   xmlns="http://www.w3.org/2000/svg"
   xmlns:sodipodi="http://sodipodi.sourceforge.net/DTD/sodipodi-0.dtd"
   xmlns:inkscape="http://www.inkscape.org/namespaces/inkscape"
   version="1.1"
   id="svg2"
   width="64"
   height="64"
   viewBox="0 0 64 64"
   sodipodi:docname="5162.svg"
   inkscape:version="0.92.4 (5da689c313, 2019-01-14)">
  <metadata
     id="metadata8">
    <rdf:RDF>
      <cc:Work
         rdf:about="">
        <dc:format>image/svg+xml</dc:format>
        <dc:type
           rdf:resource="http://purl.org/dc/dcmitype/StillImage" />
        <dc:title></dc:title>
      </cc:Work>
    </rdf:RDF>
  </metadata>
  <defs
     id="defs6" />
  <sodipodi:namedview
     pagecolor="#ffffff"
     bordercolor="#666666"
     borderopacity="1"
     objecttolerance="10"
     gridtolerance="10"
     guidetolerance="10"
     inkscape:pageopacity="0"
     inkscape:pageshadow="2"
     inkscape:window-width="1920"
     inkscape:window-height="1057"
     id="namedview4"
     showgrid="false"
     inkscape:pagecheckerboard="true"
     inkscape:zoom="14.75"
     inkscape:cx="32"
     inkscape:cy="32"
     inkscape:window-x="-8"
     inkscape:window-y="-8"
     inkscape:window-maximized="1"
     inkscape:current-layer="svg2" />
  <path
     style="fill:#000000;stroke-width:0.31999999"
     d="M 26.81809,56.469539 C 17.577951,54.391062 10.594374,47.74656 7.9270784,38.495738 7.0006093,35.282522 6.9363702,29.128785 7.7957997,25.92 9.9545907,17.859889 16.180526,11.139575 23.931127,8.5034253 28.283517,7.0230819 31.823653,6.7448502 36.323136,7.5294944 48.216147,9.6034621 56.929267,19.909884 56.954445,31.933491 c 0.01693,8.087453 -3.905034,15.790931 -10.371907,20.372365 -2.4821,1.758432 -4.024084,2.528675 -7.124708,3.558883 -3.201702,1.063795 -9.301639,1.355671 -12.63974,0.6048 z M 38.345162,54.41273 C 46.088515,52.204064 52.257965,46.006512 54.444563,38.24 55.305434,35.182301 55.455008,29.661226 54.751699,26.902927 52.569165,18.343253 46.090906,11.701825 37.85175,9.5773162 34.727667,8.7717552 29.832108,8.7071494 26.706859,9.430239 18.570164,11.312828 11.709791,18.001561 9.5643626,26.143846 c -2.4996004,9.486432 1.5631434,19.97305 9.8318354,25.3776 5.562214,3.635552 12.583611,4.706896 18.948964,2.891284 z m 4.248182,-33.003844 -2.046656,-2.264907 1.164691,-1.164692 1.164691,-1.164692 2.081965,2.063458 c 1.145082,1.134902 2.081965,2.21937 2.081965,2.409929 0,0.329418 -1.950419,2.395449 -2.255235,2.388914 -0.07962,-0.0017 -1.06576,-1.022311 -2.191421,-2.26801 z"
     id="path12"
     inkscape:connector-curvature="0" />
</svg>
