<?xml version="1.0" encoding="UTF-8" standalone="no"?>
<!-- Created with Inkscape (http://www.inkscape.org/) -->

<svg
   xmlns:dc="http://purl.org/dc/elements/1.1/"
   xmlns:cc="http://creativecommons.org/ns#"
   xmlns:rdf="http://www.w3.org/1999/02/22-rdf-syntax-ns#"
   xmlns:svg="http://www.w3.org/2000/svg"
   xmlns="http://www.w3.org/2000/svg"
   xmlns:sodipodi="http://sodipodi.sourceforge.net/DTD/sodipodi-0.dtd"
   xmlns:inkscape="http://www.inkscape.org/namespaces/inkscape"
   version="1.1"
   id="svg2"
   width="64"
   height="64"
   viewBox="0 0 64 64"
   sodipodi:docname="5324.svg"
   inkscape:version="0.92.4 (5da689c313, 2019-01-14)">
  <metadata
     id="metadata8">
    <rdf:RDF>
      <cc:Work
         rdf:about="">
        <dc:format>image/svg+xml</dc:format>
        <dc:type
           rdf:resource="http://purl.org/dc/dcmitype/StillImage" />
        <dc:title></dc:title>
      </cc:Work>
    </rdf:RDF>
  </metadata>
  <defs
     id="defs6">
    <clipPath
       clipPathUnits="userSpaceOnUse"
       id="clipPath18">
      <ellipse
         id="ellipse20"
         cx="31.762711"
         cy="32.033894"
         rx="25.525425"
         ry="25.254238"
         style="stroke-width:1.02413881" />
    </clipPath>
  </defs>
  <sodipodi:namedview
     pagecolor="#ffffff"
     bordercolor="#666666"
     borderopacity="1"
     objecttolerance="10"
     gridtolerance="10"
     guidetolerance="10"
     inkscape:pageopacity="0"
     inkscape:pageshadow="2"
     inkscape:window-width="1920"
     inkscape:window-height="1057"
     id="namedview4"
     showgrid="false"
     inkscape:pagecheckerboard="true"
     inkscape:zoom="14.75"
     inkscape:cx="32"
     inkscape:cy="32"
     inkscape:window-x="-8"
     inkscape:window-y="-8"
     inkscape:window-maximized="1"
     inkscape:current-layer="svg2" />
  <path
     style="fill:#000000;stroke-width:0.31999999"
     d="M 28.851326,56.927146 C 15.563634,55.368035 5.5282902,42.694518 7.0457942,29.389196 7.4484502,25.858748 8.1073914,23.730297 9.8535008,20.32 11.048852,17.985379 11.90679,16.858978 14.384046,14.371775 16.998434,11.746889 17.879261,11.08754 20.48,9.8086077 24.587724,7.7886045 27.70262,7.04 32,7.04 c 13.940829,0 24.96,11.019171 24.96,24.96 0,4.297379 -0.748605,7.412275 -2.768608,11.52 -1.278931,2.600739 -1.938282,3.481565 -4.563168,6.095955 -2.50576,2.495738 -3.609462,3.333719 -6.020653,4.571155 -4.723325,2.424032 -9.651078,3.33905 -14.756245,2.740036 z m 10.320863,-2.656909 c 1.970214,-0.669722 5.838429,-2.582941 6.525833,-3.227677 0.109012,-0.102246 -8.497248,-16.504026 -8.856921,-16.879494 -0.124835,-0.130314 -2.716192,4.382643 -5.758578,10.02879 -3.042385,5.64615 -5.484564,10.310403 -5.427066,10.365011 0.473044,0.449264 3.667307,0.757735 6.984543,0.674493 3.328128,-0.08351 4.425325,-0.24495 6.532189,-0.961123 z M 29.841258,42.88 32.848864,37.28 21.175092,37.19601 c -6.420575,-0.04619 -11.7466472,-0.0111 -11.835717,0.07795 -0.3449836,0.344983 1.08396,4.172615 2.39182,6.406832 2.428417,4.148468 6.507089,7.860317 10.699697,9.737405 l 1.393155,0.623735 1.504803,-2.780967 C 26.156491,49.731434 28.187075,45.96 29.841258,42.88 Z m 19.00902,5.36 C 53.009446,43.721286 55.36,37.81384 55.36,31.879663 55.36,30.566637 55.2726,29.264567 55.165763,28.986172 54.994742,28.540495 53.847392,28.48 45.565763,28.48 40.049792,28.48 36.16,28.601823 36.16,28.774575 c 0,0.273236 8.403648,16.412673 10.135459,19.465425 0.424336,0.748 0.891111,1.36 1.037274,1.36 0.146166,0 0.829062,-0.612 1.517545,-1.36 z M 27.84,35.337741 C 27.84,35.134813 16.664497,14.973211 16.411662,14.72 16.119635,14.427539 13.0866,18.048398 11.827783,20.192269 9.826928,23.599894 8.9052403,26.781898 8.7158813,30.935698 8.6262282,32.902333 8.6399594,34.738333 8.7463949,35.015699 8.9165114,35.459014 10.082717,35.52 18.389957,35.52 23.587481,35.52 27.84,35.437984 27.84,35.337741 Z M 34.774166,33.68 35.776058,31.84 34.809088,30.145741 33.842115,28.451483 31.881058,28.545741 29.92,28.64 l -0.924411,1.725042 -0.924411,1.725041 0.924411,1.71384 0.924411,1.71384 1.926136,9.6e-4 1.926136,0.0013 1.001894,-1.84 z M 33.089238,19.684194 C 36.903376,12.93189 38.567293,9.7003638 38.305069,9.5544291 37.554112,9.136505 34.09143,8.64 31.927738,8.64 c -2.784469,0 -6.620112,0.7752595 -8.887738,1.796388 -2.344317,1.055663 -5.12,2.745974 -5.12,3.117934 0,0.67232 9.059493,16.554185 9.303701,16.309977 0.145552,-0.145552 2.785043,-4.726599 5.865537,-10.180105 z m 21.496084,6.382772 C 53.410333,21.385433 50.150941,16.470592 46.303002,13.578045 44.636976,12.32567 41.01713,10.24 40.509562,10.24 c -0.123767,0 -3.970941,6.697204 -8.501783,14.8 l -1.028872,1.84 h 11.905237 11.905238 z"
     id="path12"
     inkscape:connector-curvature="0"
     clip-path="url(#clipPath18)" />
</svg>
