<?xml version="1.0" encoding="UTF-8" standalone="no"?>
<!-- Created with Inkscape (http://www.inkscape.org/) -->

<svg
   xmlns:dc="http://purl.org/dc/elements/1.1/"
   xmlns:cc="http://creativecommons.org/ns#"
   xmlns:rdf="http://www.w3.org/1999/02/22-rdf-syntax-ns#"
   xmlns:svg="http://www.w3.org/2000/svg"
   xmlns="http://www.w3.org/2000/svg"
   xmlns:sodipodi="http://sodipodi.sourceforge.net/DTD/sodipodi-0.dtd"
   xmlns:inkscape="http://www.inkscape.org/namespaces/inkscape"
   version="1.1"
   id="svg2873"
   width="200"
   height="200"
   viewBox="0 0 200 200"
   sodipodi:docname="5352.svg"
   inkscape:version="0.92.4 (5da689c313, 2019-01-14)">
  <metadata
     id="metadata2879">
    <rdf:RDF>
      <cc:Work
         rdf:about="">
        <dc:format>image/svg+xml</dc:format>
        <dc:type
           rdf:resource="http://purl.org/dc/dcmitype/StillImage" />
        <dc:title></dc:title>
      </cc:Work>
    </rdf:RDF>
  </metadata>
  <defs
     id="defs2877">
    <clipPath
       clipPathUnits="userSpaceOnUse"
       id="clipPath2887">
      <rect
         id="rect2889"
         width="142.7973"
         height="126.68919"
         x="27.702703"
         y="35.81081" />
    </clipPath>
  </defs>
  <sodipodi:namedview
     pagecolor="#ffffff"
     bordercolor="#666666"
     borderopacity="1"
     objecttolerance="10"
     gridtolerance="10"
     guidetolerance="10"
     inkscape:pageopacity="0"
     inkscape:pageshadow="2"
     inkscape:window-width="1920"
     inkscape:window-height="1057"
     id="namedview2875"
     showgrid="false"
     inkscape:pagecheckerboard="true"
     inkscape:zoom="4.44"
     inkscape:cx="100"
     inkscape:cy="100"
     inkscape:window-x="-8"
     inkscape:window-y="-8"
     inkscape:window-maximized="1"
     inkscape:current-layer="svg2873" />
  <path
     style="fill:#000000"
     d="M 30.24242,37.462678 C 30.93409,37.198475 62.775,37.098789 101,37.241154 L 170.5,37.5 V 100 162.5 H 100 29.5 l -0.25758,-62.27848 c -0.20387,-49.291542 0.005,-62.378643 1,-62.758842 z M 100,61 l 65,0 v -9 -9 l -65,0 H 35 v 9 9 z m 0,24 h 65 v -9 -9 h -65 l -65,0 v 9 9 z m 0,24 h 65 v -9 -9 h -65 l -65,0 v 9 9 z m 0,24 h 65 v -9 -9 h -65 l -65,0 v 9 9 z m 0,24 h 65 V 147.5 138 H 100 35 v 9.5 9.5 z"
     id="path2883"
     inkscape:connector-curvature="0"
     clip-path="url(#clipPath2887)" />
</svg>
