<?xml version="1.0" encoding="UTF-8" standalone="no"?>
<!-- Created with Inkscape (http://www.inkscape.org/) -->

<svg
   xmlns:dc="http://purl.org/dc/elements/1.1/"
   xmlns:cc="http://creativecommons.org/ns#"
   xmlns:rdf="http://www.w3.org/1999/02/22-rdf-syntax-ns#"
   xmlns:svg="http://www.w3.org/2000/svg"
   xmlns="http://www.w3.org/2000/svg"
   xmlns:sodipodi="http://sodipodi.sourceforge.net/DTD/sodipodi-0.dtd"
   xmlns:inkscape="http://www.inkscape.org/namespaces/inkscape"
   version="1.1"
   id="svg815"
   width="200"
   height="200"
   viewBox="0 0 200 200"
   sodipodi:docname="5887.svg"
   inkscape:version="0.92.4 (5da689c313, 2019-01-14)">
  <metadata
     id="metadata821">
    <rdf:RDF>
      <cc:Work
         rdf:about="">
        <dc:format>image/svg+xml</dc:format>
        <dc:type
           rdf:resource="http://purl.org/dc/dcmitype/StillImage" />
        <dc:title></dc:title>
      </cc:Work>
    </rdf:RDF>
  </metadata>
  <defs
     id="defs819">
    <clipPath
       clipPathUnits="userSpaceOnUse"
       id="clipPath831">
      <rect
         id="rect833"
         width="184.17117"
         height="108.18018"
         x="3.8288288"
         y="47" />
    </clipPath>
  </defs>
  <sodipodi:namedview
     pagecolor="#ffffff"
     bordercolor="#666666"
     borderopacity="1"
     objecttolerance="10"
     gridtolerance="10"
     guidetolerance="10"
     inkscape:pageopacity="0"
     inkscape:pageshadow="2"
     inkscape:window-width="1920"
     inkscape:window-height="1057"
     id="namedview817"
     showgrid="false"
     inkscape:pagecheckerboard="true"
     inkscape:zoom="4.44"
     inkscape:cx="136.5991"
     inkscape:cy="100"
     inkscape:window-x="-8"
     inkscape:window-y="-8"
     inkscape:window-maximized="1"
     inkscape:current-layer="svg815" />
  <path
     style="fill:#000000"
     d="M 53.633761,138.99772 48.767522,125 H 26.883761 5 V 100 75 H 18 C 25.15,75 31,74.808828 31,74.575174 31,74.341519 28.975,68.329553 26.5,61.215248 24.025,54.100944 22,47.992115 22,47.640074 22,47.288034 59.35,47 105,47 h 83 v 53 53 L 123.25,152.998 58.5,152.996 53.633761,138.99829 Z M 182.7597,100.25 182.5,52.5 105.64062,52.243765 c -72.953273,-0.243213 -76.824935,-0.16698 -76.181556,1.5 0.372804,0.965929 7.911353,22.568735 16.75233,48.006235 L 62.285897,148 h 60.366753 60.36674 z M 73.225119,124.52471 C 63.142479,119.83067 57.619312,111.1334 57.650795,100 c 0.02179,-7.706057 1.777736,-12.25481 6.933822,-17.96198 10.864141,-12.025306 28.993345,-11.974731 39.859633,0.111197 4.98013,5.5391 6.89198,10.655946 6.85658,18.350783 -0.0267,5.80378 -3.32928,14.23865 -6.88165,17.57592 -1.33055,1.24999 -2.41918,2.64427 -2.41918,3.09839 0,0.45413 6.3,0.82569 14,0.82569 7.7,0 14,-0.24464 14,-0.54364 0,-0.29901 -1.1659,-1.76151 -2.59088,-3.25 -6.21306,-6.48997 -8.60028,-18.513677 -5.48418,-27.622223 1.67063,-4.883352 8.19259,-12.066178 13.53011,-14.901114 5.75993,-3.059286 18.34125,-3.053093 24.11316,0.01187 4.94209,2.624313 11.07814,9.227908 13.1626,14.165544 1.97921,4.688333 1.97921,15.590793 0,20.279123 -2.3038,5.4572 -8.60732,11.88332 -14.23081,14.50759 -4.95872,2.31405 -5.30964,2.33331 -42.5,2.33331 H 78.5 Z m 16.273538,-3.62869 c 5.5089,-1.38716 12.210213,-7.04534 14.615213,-12.34021 C 110.39812,94.720357 100.02157,79 84.604938,79 77.853736,79 75.272443,79.943884 70.454111,84.174435 58.010305,95.100241 62.258999,115.5265 78,120.45247 c 5.651532,1.76859 6.158764,1.78815 11.498657,0.44355 z m 63.000003,0 c 8.55798,-2.15492 16.43528,-11.66864 16.4738,-19.89602 0.0583,-12.448625 -9.2185,-22 -21.36752,-22 -6.80523,0 -10.16287,1.23185 -14.47705,5.311334 -7.28521,6.888886 -9.0388,16.461276 -4.63464,25.299266 2.79795,5.61478 6.88661,9.08708 12.92691,10.97825 5.18601,1.62369 5.78425,1.64028 11.0785,0.30717 z M 40.112914,100.25 33.280686,80.5 H 21.890343 10.5 L 10.22886,100.25 9.9577201,120 H 28.451431 46.945142 Z"
     id="path827"
     inkscape:connector-curvature="0"
     clip-path="url(#clipPath831)" />
</svg>
