<?xml version="1.0" encoding="UTF-8" standalone="no"?>
<!-- Created with Inkscape (http://www.inkscape.org/) -->

<svg
   xmlns:dc="http://purl.org/dc/elements/1.1/"
   xmlns:cc="http://creativecommons.org/ns#"
   xmlns:rdf="http://www.w3.org/1999/02/22-rdf-syntax-ns#"
   xmlns:svg="http://www.w3.org/2000/svg"
   xmlns="http://www.w3.org/2000/svg"
   xmlns:sodipodi="http://sodipodi.sourceforge.net/DTD/sodipodi-0.dtd"
   xmlns:inkscape="http://www.inkscape.org/namespaces/inkscape"
   version="1.1"
   id="svg2"
   width="64"
   height="64"
   viewBox="0 0 64 64"
   sodipodi:docname="6057.svg"
   inkscape:version="0.92.4 (5da689c313, 2019-01-14)">
  <metadata
     id="metadata8">
    <rdf:RDF>
      <cc:Work
         rdf:about="">
        <dc:format>image/svg+xml</dc:format>
        <dc:type
           rdf:resource="http://purl.org/dc/dcmitype/StillImage" />
        <dc:title></dc:title>
      </cc:Work>
    </rdf:RDF>
  </metadata>
  <defs
     id="defs6">
    <clipPath
       clipPathUnits="userSpaceOnUse"
       id="clipPath18">
      <path
         style="fill:none;stroke:#000000;stroke-width:1px;stroke-linecap:butt;stroke-linejoin:miter;stroke-opacity:1"
         d="m 31.160638,19.512197 c 0.159798,0.06392 0.319596,0.127839 0.479394,0.191758 0.09588,0.03196 0.193007,0.06039 0.287637,0.09588 0.16115,0.06043 0.314545,0.142303 0.479394,0.191757 0.15609,0.04683 0.323638,0.04795 0.479395,0.09588 0.440935,0.135673 1.009855,0.391705 1.438183,0.575274 0.152095,0.06518 1.084226,0.449118 1.246426,0.575273 0.126137,0.09811 0.183641,0.262188 0.287636,0.383516 0.08824,0.10295 0.191758,0.191757 0.287637,0.287636 0.03196,0.03196 0.07081,0.05827 0.09588,0.09588 0.03964,0.05946 0.05624,0.132296 0.09588,0.191758 0.02507,0.03761 0.07567,0.05545 0.09588,0.09588 0.01429,0.02858 -0.01429,0.06729 0,0.09588 0.02021,0.04043 0.07567,0.05545 0.09588,0.09588 0.01429,0.02858 -0.0226,0.07328 0,0.09588 0.0226,0.0226 0.06392,0 0.09588,0 0.03196,0.03196 0.07081,0.05827 0.09588,0.09588 0.03196,0.06392 0.06392,0.127839 0.09588,0.191758 0,0.03196 -0.01429,0.06729 0,0.09588 0.02021,0.04043 0.07567,0.05545 0.09588,0.09588 0.01429,0.02858 -0.01429,0.06729 0,0.09588 0.04043,0.08085 0.151332,0.110905 0.191758,0.191757 0.02858,0.05717 -0.0452,0.146561 0,0.191758 0.0226,0.0226 0.07328,-0.0226 0.09588,0 0.0226,0.0226 -0.0226,0.07328 0,0.09588 0.05053,0.05053 0.141225,0.04535 0.191757,0.09588 0.0226,0.0226 -0.01773,0.06929 0,0.09588 0.05455,0.129762 0.212423,0.174816 0.287637,0.287637 0.08389,0.125838 0.283572,0.654892 0.287637,0.671152 0.02325,0.09302 -0.03561,0.198615 0,0.287636 0.03357,0.08393 0.13752,0.119442 0.191757,0.191758 0.04288,0.05717 0.053,0.134587 0.09588,0.191758 0.05424,0.07232 0.127839,0.127838 0.191758,0.191758 0.184819,0.184819 0.156341,0.196766 0.383516,0.287636 0.187673,0.07507 0.389486,0.112135 0.575273,0.191758 0.131371,0.0563 0.252144,0.135456 0.383516,0.191758 0.347585,0.148965 0.369759,0.06062 0.767031,0.287637 0.07849,0.04485 0.119441,0.13752 0.191757,0.191757 0.05717,0.04288 0.141226,0.04535 0.191758,0.09588 0.05053,0.05053 0.04535,0.141225 0.09588,0.191758 0.05053,0.05053 0.141225,0.04535 0.191758,0.09588 0.0205,0.0205 -0.01762,0.330655 0,0.383515 0.08274,0.248217 0.242181,0.327938 0.383515,0.575274 0.05014,0.08775 0.03714,0.205396 0.09588,0.287636 0.323024,0.452233 0.956019,0.764262 1.342305,1.150547 0.33417,0.334171 0.549927,0.70691 0.86291,1.054668 0.151178,0.167976 0.354038,0.29136 0.479394,0.479394 0.416228,0.624342 0.495525,1.066449 0.767031,1.72582 0.04141,0.100571 0.535067,1.234055 0.671152,1.438183 0.07521,0.112821 0.208825,0.1773 0.287637,0.287637 0.08308,0.116305 0.127839,0.255677 0.191758,0.383516 0.03196,0.06392 0.053,0.134586 0.09588,0.191757 0.05424,0.07232 0.13752,0.119442 0.191757,0.191758 0.04288,0.05717 0.053,0.134587 0.09588,0.191758 0.517241,0.689655 -0.106462,-0.202341 0.383516,0.287637 0.05053,0.05053 0.053,0.134586 0.09588,0.191757 0.05424,0.07232 0.135288,0.121171 0.191758,0.191758 0.07198,0.08998 0.119772,0.197656 0.191757,0.287637 0.05647,0.07059 0.146909,0.113272 0.191758,0.191758 0.08539,0.149431 0.09172,0.339344 0.191758,0.479394 0.06698,0.09377 0.206155,0.110276 0.287636,0.191758 0.359691,0.359691 0.06066,0.17676 0.287637,0.479394 0.05424,0.07232 0.137521,0.119442 0.191758,0.191758 0.04288,0.05717 0.04535,0.141225 0.09588,0.191758 0.0226,0.0226 0.07328,-0.0226 0.09588,0 0.0226,0.0226 -0.0226,0.07328 0,0.09588 0.0226,0.0226 0.06392,0 0.09588,0 0.223717,0 0.447434,0 0.671152,0 0.03196,0 0.06392,0 0.09588,0 0.03196,0 0.07328,-0.0226 0.09588,0 0.0452,0.0452 -0.02859,0.134586 0,0.191757 0.102127,0.204256 0.08963,-0.0125 0.191757,0.191758 0.01429,0.02859 -0.0226,0.07328 0,0.09588 0.0226,0.0226 0.07328,-0.0226 0.09588,0 0.0226,0.0226 -0.01429,0.06729 0,0.09588 0.02021,0.04043 0.07567,0.05545 0.09588,0.09588 0.02601,0.05201 -0.02623,0.357281 0,0.383515 0.0226,0.0226 0.07328,-0.0226 0.09588,0 0.0452,0.0452 -0.02859,0.134587 0,0.191758 0.02021,0.04043 0.07567,0.05545 0.09588,0.09588 0.01429,0.02859 -0.0226,0.07328 0,0.09588 0.0226,0.0226 0.07328,-0.0226 0.09588,0 0.0226,0.0226 -0.0226,0.07328 0,0.09588 0.0226,0.0226 0.07328,-0.0226 0.09588,0 0.0452,0.0452 -0.02859,0.134586 0,0.191758 0.02021,0.04043 0.08159,0.053 0.09588,0.09588 0.02021,0.06064 0,0.127839 0,0.191758 0,0.03196 -0.01429,0.06729 0,0.09588 0.2194,0.4388 -0.03974,-0.406854 0.191757,0.287637 0.01011,0.03032 -0.01011,0.06556 0,0.09588 0.0226,0.0678 0.07328,0.123961 0.09588,0.191757 0.01011,0.03032 -0.01429,0.06729 0,0.09588 0.02021,0.04043 0.07567,0.05545 0.09588,0.09588 0.118073,0.236145 -0.278311,-0.08655 0.09588,0.287637 0.0226,0.0226 0.07328,-0.0226 0.09588,0 0.0226,0.0226 0,0.06392 0,0.09588 0.06392,0.03196 0.141225,0.04535 0.191758,0.09588 0.0226,0.0226 -0.01011,0.06556 0,0.09588 0.0226,0.0678 0.04535,0.141225 0.09588,0.191757 0.0226,0.0226 0.08159,-0.02858 0.09588,0 0.02859,0.05717 -0.02021,0.131119 0,0.191758 0.01429,0.04288 0.07081,0.05827 0.09588,0.09588 0.118005,0.177007 0.169632,0.398266 0.287637,0.575273 0.02507,0.03761 0.08159,0.053 0.09588,0.09588 0.02021,0.06064 -0.03546,0.138574 0,0.191758 0.03964,0.05946 0.141225,0.04535 0.191758,0.09588 0.0226,0.0226 -0.0226,0.07328 0,0.09588 0.116778,0.116779 0.214213,0.04491 0.287636,0.191757 0.01429,0.02859 -0.0226,0.07328 0,0.09588 0.0226,0.0226 0.06729,-0.01429 0.09588,0 0.04043,0.02021 0.05545,0.07567 0.09588,0.09588 0.02859,0.01429 0.07328,-0.0226 0.09588,0 0.0226,0.0226 -0.01429,0.06729 0,0.09588 0.02021,0.04043 0.07567,0.05545 0.09588,0.09588 0.02858,0.05717 -0.0452,0.14656 0,0.191758 0.0226,0.0226 0.08159,-0.02859 0.09588,0 0.04288,0.08576 0,0.191758 0,0.287636 0,0.191758 0,0.383516 0,0.575274 0,0.319596 0,0.639192 0,0.958789 0,0.02278 0.01074,0.362026 0,0.383515 -0.121793,0.243585 -0.114592,-0.09819 -0.191758,0.287637 -0.0188,0.09402 0.01576,0.193062 0,0.287636 -0.01662,0.09969 -0.06392,0.191758 -0.09588,0.287637 -0.03196,0.09588 -0.05834,0.1938 -0.09588,0.287637 -0.02654,0.06635 -0.06934,0.125405 -0.09588,0.191758 -0.03753,0.09384 -0.05834,0.1938 -0.09588,0.287636 -0.0053,0.01325 -0.190853,0.378993 -0.191757,0.383516 -0.0188,0.09402 0,0.191758 0,0.287636 0,0.03196 0.01429,0.06729 0,0.09588 -0.2194,0.4388 0.03974,-0.406854 -0.191758,0.287637 -0.01906,0.05717 0,0.482379 0,0.575273 0,0.03196 0.01429,0.06729 0,0.09588 -0.02021,0.04043 -0.07567,0.05545 -0.09588,0.09588 -0.01429,0.02859 0,0.06392 0,0.09588 0,0.06392 0.0155,0.129747 0,0.191758 -0.01733,0.06933 -0.07328,0.123961 -0.09588,0.191757 -0.05904,0.177109 0.146302,0.04546 -0.09588,0.287637 -0.0226,0.0226 -0.07328,-0.0226 -0.09588,0 -0.0226,0.0226 0.0226,0.07328 0,0.09588 -0.04794,0.04794 -0.239697,-0.04794 -0.287636,0 -0.0226,0.0226 0.0226,0.07328 0,0.09588 -0.0226,0.0226 -0.06392,0 -0.09588,0 -0.03196,0 -0.06392,0 -0.09588,0 -0.191758,0 -0.383516,0 -0.575273,0 -0.06392,0 -0.129747,-0.0155 -0.191758,0 -0.497858,0.124464 0.102355,0.09588 -0.383516,0.09588 -0.01741,0 -0.631935,-0.01307 -0.671152,0 -0.299269,0.09976 0.03196,0.06392 -0.09588,0.191758 -0.0226,0.0226 -0.07328,-0.0226 -0.09588,0 -0.0226,0.0226 0.0226,0.07328 0,0.09588 -0.0226,0.0226 -0.07328,-0.0226 -0.09588,0 -0.0452,0.0452 0.0452,0.14656 0,0.191758 -0.0226,0.0226 -0.07328,-0.0226 -0.09588,0 -0.0226,0.0226 0.01429,0.06729 0,0.09588 -0.05496,0.109917 -0.200052,0.133368 -0.287636,0.191758 -0.03761,0.02507 -0.05545,0.07567 -0.09588,0.09588 -0.02859,0.01429 -0.06929,-0.01773 -0.09588,0 -0.07521,0.05014 -0.110906,0.151331 -0.191758,0.191758 -0.08147,0.04073 -0.384084,-0.03177 -0.479394,0 -0.04288,0.01429 -0.05545,0.07567 -0.09588,0.09588 -0.02859,0.01429 -0.06556,-0.01011 -0.09588,0 -0.0678,0.0226 -0.121682,0.08186 -0.191758,0.09588 -0.09402,0.0188 -0.191757,0 -0.287636,0 -0.255677,0 -0.511354,0 -0.767031,0 -0.05014,0 -0.358305,-0.01261 -0.383516,0 -0.04043,0.02021 -0.05545,0.07567 -0.09588,0.09588 -0.05717,0.02859 -0.134587,-0.02858 -0.191758,0 -0.04043,0.02021 -0.05545,0.07567 -0.09588,0.09588 -0.03467,0.01734 -0.412706,0 -0.479394,0 -0.287637,0 -0.575273,0 -0.86291,0 -0.05014,0 -0.358305,-0.01261 -0.383515,0 -0.04043,0.02021 -0.053,0.08159 -0.09588,0.09588 -0.09096,0.03032 -0.191758,0 -0.287637,0 -0.191758,0 -0.383516,0 -0.575273,0 -0.03196,0 -0.06392,0 -0.09588,0 -0.03196,0 -0.06729,-0.01429 -0.09588,0 -0.04043,0.02021 -0.05545,0.07567 -0.09588,0.09588 -0.05717,0.02858 -0.134587,-0.02859 -0.191758,0 -0.04043,0.02021 -0.053,0.08159 -0.09588,0.09588 -0.08604,0.06064 -0.196678,-0.03032 -0.287636,0 -0.0678,0.0226 -0.122428,0.07855 -0.191758,0.09588 -0.06201,0.0155 -0.127839,0 -0.191758,0 -0.127838,0 -0.255677,0 -0.383515,0 -0.447435,0 -0.89487,0 -1.342305,0 -0.223717,0 -0.447435,0 -0.671152,0 -0.02278,0 -0.362026,0.01074 -0.383516,0 -0.103066,-0.05153 -0.184569,-0.140225 -0.287636,-0.191758 -0.153938,-0.07697 -0.318759,-0.129975 -0.479395,-0.191758 -1.134698,-0.436422 -0.505713,-0.206961 -1.917577,-0.575273 -0.36786,-0.09596 -1.859998,-0.520039 -2.205215,-0.575274 -0.411469,-0.06583 -0.831162,-0.06127 -1.246425,-0.09588 -0.351786,-0.02932 -0.703414,-0.06075 -1.054668,-0.09588 -0.28797,-0.0288 -0.574003,-0.07888 -0.86291,-0.09588 -0.478567,-0.02815 -0.960758,0.0434 -1.438183,0 -0.131232,-0.01193 -0.253067,-0.07724 -0.383516,-0.09588 -0.09492,-0.01356 -0.191758,0 -0.287636,0 -0.03196,0 -0.06556,0.01011 -0.09588,0 -0.0678,-0.0226 -0.123961,-0.07328 -0.191758,-0.09588 -0.143818,-0.04794 -0.09588,0.09588 -0.287637,0 -0.02858,-0.01429 0.0226,-0.07328 0,-0.09588 -0.05053,-0.05053 -0.134586,-0.053 -0.191758,-0.09588 -0.07232,-0.05424 -0.107827,-0.158185 -0.191757,-0.191758 -0.08902,-0.03561 -0.193063,0.01576 -0.287637,0 -0.267903,-0.04465 -0.595006,-0.242986 -0.86291,-0.287636 -0.09457,-0.01576 -0.193062,0.01576 -0.287637,0 -0.09969,-0.01662 -0.187946,-0.07926 -0.287636,-0.09588 -0.09457,-0.01576 -0.192722,0.01356 -0.287637,0 -0.418465,-0.05978 -0.306899,-0.100695 -0.671152,-0.191758 -0.158097,-0.03952 -0.31807,-0.07283 -0.479394,-0.09588 -0.126554,-0.01808 -0.255678,0 -0.383516,0 -0.03196,0 -0.09588,0.03196 -0.09588,0 0,-0.03196 0.06729,-0.01429 0.09588,0 0.04043,0.02021 0.06392,0.06392 0.09588,0.09588 0.03196,0.03196 0.09588,0.05068 0.09588,0.09588 0,0.03196 -0.06621,0.01187 -0.09588,0 -0.132705,-0.05308 -0.25942,-0.120846 -0.383516,-0.191758 -0.814253,-0.465287 -1.635849,-0.996799 -2.396972,-1.534062 -0.616218,-0.434977 -1.20216,-0.912069 -1.821699,-1.342304 -0.531535,-0.369122 -1.097212,-0.687269 -1.629941,-1.054668 -0.394643,-0.272168 -0.754899,-0.592204 -1.150546,-0.86291 -0.212655,-0.1455 -0.447435,-0.255677 -0.671153,-0.383516 -0.223717,-0.191757 -0.435429,-0.398481 -0.671152,-0.575273 -0.149084,-0.111813 -0.336232,-0.168335 -0.479394,-0.287637 -0.0549,-0.04575 -0.053,-0.134586 -0.09588,-0.191757 -0.05424,-0.07232 -0.141615,-0.116544 -0.191758,-0.191758 -0.07928,-0.118923 -0.157093,-0.244855 -0.191758,-0.383516 -0.031,-0.124021 0,-0.255677 0,-0.383515 0,-0.223718 0,-0.447435 0,-0.671152 0,-0.159799 0,-0.319597 0,-0.479395 0,-0.03196 -0.0226,-0.07328 0,-0.09588 0.0226,-0.0226 0.07328,0.0226 0.09588,0 0.0226,-0.0226 0,-0.06392 0,-0.09588 0,-0.351555 0,-0.703111 0,-1.054667 0,-0.319597 0,-0.639193 0,-0.958789 0,-0.02219 -0.01712,-0.541027 0,-0.575273 0.02021,-0.04043 0.07567,-0.05545 0.09588,-0.09588 0.01429,-0.02859 -0.0226,-0.07328 0,-0.09588 0.05053,-0.05053 0.141225,-0.04535 0.191758,-0.09588 0.0226,-0.0226 -0.01429,-0.06729 0,-0.09588 0.02021,-0.04043 0.07567,-0.05545 0.09588,-0.09588 0.02858,-0.05717 -0.0452,-0.14656 0,-0.191758 0.0226,-0.0226 0.08159,0.02859 0.09588,0 0.02858,-0.05717 -0.0155,-0.129747 0,-0.191757 0.01733,-0.06933 0.07855,-0.122428 0.09588,-0.191758 0.03876,-0.155027 -0.02627,-0.321771 0,-0.479395 0.01661,-0.09969 0.07926,-0.187946 0.09588,-0.287636 0.01576,-0.09458 -0.03032,-0.196678 0,-0.287637 0.03644,-0.109319 0.140225,-0.18457 0.191758,-0.287637 0.0452,-0.0904 0.05834,-0.1938 0.09588,-0.287636 0.02654,-0.06635 0.07855,-0.122428 0.09588,-0.191758 0.0155,-0.06201 0,-0.127839 0,-0.191758 0,-0.03196 0.0226,-0.07328 0,-0.09588 -0.0226,-0.0226 -0.07328,0.0226 -0.09588,0 -0.0226,-0.0226 0,-0.06392 0,-0.09588 0,-0.09588 0,-0.191757 0,-0.287636 0,-0.06392 -0.02374,-0.13241 0,-0.191758 0.0428,-0.10699 0.140225,-0.18457 0.191758,-0.287637 0.0452,-0.0904 0.06392,-0.191757 0.09588,-0.287636 0.06392,-0.191758 0.138574,-0.380266 0.191758,-0.575274 0.239245,-0.877234 -0.01397,-0.07997 0.09588,-0.958788 0.0399,-0.31922 0.106243,-0.222848 0.191758,-0.479395 0.03396,-0.101882 -0.03396,-0.281633 0,-0.383515 0.01429,-0.04288 0.07567,-0.05545 0.09588,-0.09588 0.03013,-0.06026 -0.03013,-0.323254 0,-0.383516 0.01429,-0.02858 0.07328,0.0226 0.09588,0 0.03366,-0.03365 -0.03311,-0.413168 0,-0.479394 0.02021,-0.04043 0.07081,-0.05827 0.09588,-0.09588 0.03964,-0.05946 0.04535,-0.141225 0.09588,-0.191758 0.0226,-0.0226 0.07328,0.0226 0.09588,0 0.05053,-0.05053 0.04535,-0.141225 0.09588,-0.191758 0.0226,-0.0226 0.07328,0.0226 0.09588,0 0.0226,-0.0226 -0.01429,-0.06729 0,-0.09588 0.02021,-0.04043 0.07567,-0.05545 0.09588,-0.09588 0.02859,-0.05717 -0.02858,-0.134586 0,-0.191757 0.02021,-0.04043 0.06392,-0.06392 0.09588,-0.09588 0.03196,-0.06392 0.06934,-0.125405 0.09588,-0.191758 0.03753,-0.09384 0.03524,-0.206784 0.09588,-0.287637 0.04288,-0.05717 0.141225,-0.04535 0.191758,-0.09588 0.0226,-0.0226 -0.01011,-0.06556 0,-0.09588 0.231497,-0.694491 -0.02764,0.151163 0.191758,-0.287637 0.01429,-0.02859 -0.02859,-0.08159 0,-0.09588 0.05717,-0.02858 0.134586,0.02859 0.191757,0 0.02859,-0.01429 -0.0226,-0.07328 0,-0.09588 0.0226,-0.0226 0.06729,0.01429 0.09588,0 0.06403,-0.03202 0.537358,-0.541571 0.575273,-0.575273 0.186563,-0.165834 0.405425,-0.29648 0.575274,-0.479395 0.493592,-0.531561 0.838815,-1.132932 1.246425,-1.725819 0.155754,-0.226552 0.322903,-0.44511 0.479395,-0.671153 0.131182,-0.189486 0.245237,-0.390902 0.383515,-0.575273 0.05424,-0.07232 0.135288,-0.121171 0.191758,-0.191758 0.07199,-0.08998 0.122619,-0.195451 0.191758,-0.287636 0.125705,-0.167607 0.28073,-0.168438 0.479394,-0.287637 0.03876,-0.02325 0.05545,-0.07567 0.09588,-0.09588 0.393169,-0.196584 0.198485,0.04009 0.479395,-0.287637 0.133178,-0.155375 0.248758,-0.325386 0.383515,-0.479394 0.08929,-0.102044 0.199394,-0.184687 0.287637,-0.287637 0.103995,-0.121328 0.185336,-0.260755 0.287636,-0.383515 0.05787,-0.06944 0.141616,-0.116544 0.191758,-0.191758 0.07928,-0.118923 0.09069,-0.28245 0.191758,-0.383516 0.07146,-0.07146 0.197241,-0.05068 0.287637,-0.09588 0.03967,-0.01984 0.260543,-0.246998 0.287636,-0.287637 0.03964,-0.05946 0.05624,-0.132296 0.09588,-0.191758 0.02507,-0.03761 0.06392,-0.06392 0.09588,-0.09588 0.09588,-0.09588 0.191758,-0.191758 0.287637,-0.287636 0.06392,-0.06392 0.146909,-0.113273 0.191757,-0.191758 0.633501,-1.108626 -0.38062,0.219856 0.575274,-1.054668 0.299535,-0.39938 0.64266,-0.764167 0.958789,-1.150547 0.129586,-0.158383 0.248758,-0.325386 0.383515,-0.479394 0.08929,-0.102044 0.226998,-0.166358 0.287637,-0.287637 0.04288,-0.08576 -0.03032,-0.196678 0,-0.287636 0.0037,-0.01106 0.265511,0 0.287636,0 0.383516,0 0.767032,0 1.150547,0 0.117038,0 0.221095,-0.03721 0.287637,0.09588 0.01429,0.02858 -0.01429,0.06729 0,0.09588 0.02021,0.04043 0.07567,0.05545 0.09588,0.09588 0.02858,0.05717 -0.0452,0.14656 0,0.191758 0.0226,0.0226 0.06392,0 0.09588,0 0,0.03196 -0.0226,0.07328 0,0.09588 0.0226,0.0226 0.07328,-0.0226 0.09588,0 0.0226,0.0226 -0.01429,0.06729 0,0.09588 0.02021,0.04043 0.07567,0.05545 0.09588,0.09588 0.01429,0.02859 -0.01429,0.06729 0,0.09588 0.04043,0.08085 0.151332,0.110905 0.191758,0.191757 0.01429,0.02859 -0.0226,0.07328 0,0.09588 0.0226,0.0226 0.07328,-0.0226 0.09588,0 0.0226,0.0226 -0.01429,0.06729 0,0.09588 0.02021,0.04043 0.07567,0.05545 0.09588,0.09588 0.01429,0.02859 -0.01429,0.06729 0,0.09588 0.199512,0.399025 -0.0066,-0.102498 0.191758,0.09588 0.0452,0.0452 -0.0452,0.14656 0,0.191758 0.0226,0.0226 0.06729,-0.01429 0.09588,0 0.04043,0.02021 0.05545,0.07566 0.09588,0.09588 0.05717,0.02858 0.134587,-0.02859 0.191758,0 0.142928,0.07146 0.157604,0.290634 0.287637,0.383515 0.305643,0.218316 0.540166,0.191758 0.86291,0.191758"
         id="path20"
         inkscape:connector-curvature="0" />
    </clipPath>
  </defs>
  <sodipodi:namedview
     pagecolor="#ffffff"
     bordercolor="#666666"
     borderopacity="1"
     objecttolerance="10"
     gridtolerance="10"
     guidetolerance="10"
     inkscape:pageopacity="0"
     inkscape:pageshadow="2"
     inkscape:window-width="1920"
     inkscape:window-height="1057"
     id="namedview4"
     showgrid="false"
     inkscape:pagecheckerboard="true"
     inkscape:zoom="10.429825"
     inkscape:cx="32"
     inkscape:cy="32"
     inkscape:window-x="-8"
     inkscape:window-y="-8"
     inkscape:window-maximized="1"
     inkscape:current-layer="svg2" />
  <path
     style="fill:#000000;stroke-width:0.31999999"
     d="M 0.21124389,54.64 C 0.34820202,54.42 7.4870464,42.144 16.075343,27.36 24.663639,12.576 31.796081,0.44645594 31.925213,0.40545763 32.147165,0.33499018 63.68,54.376605 63.68,54.827456 63.68,54.944355 49.343501,55.04 31.821115,55.04 6.4145315,55.04 0.01266148,54.958989 0.21124389,54.64 Z M 60.221034,52.08 C 59.873891,51.508 54.155795,41.68 47.514154,30.24 40.872512,18.8 34.652214,8.1009037 33.691274,6.4642307 L 31.944104,3.4884614 18.495072,26.624231 C 11.098104,39.348902 4.6169344,50.516 4.092473,51.44 L 3.1389066,53.12 H 31.995552 60.852198 Z m -19.34922,-0.46216 c -0.389628,-0.101437 -0.540473,-0.403011 -0.48,-0.959648 0.120192,-1.106336 -0.780236,-1.689254 -1.711251,-1.107827 -0.578733,0.361427 -0.756841,0.350499 -1.179715,-0.07238 -0.450758,-0.450758 -0.447523,-0.55392 0.03407,-1.08607 0.469315,-0.518589 0.477581,-0.665891 0.07002,-1.24777 -0.3172,-0.452864 -0.703126,-0.613689 -1.230656,-0.512848 -0.620956,0.118704 -0.79815,-0.008 -0.922739,-0.659718 -0.123123,-0.644083 -0.0029,-0.844634 0.597133,-0.995206 1.057411,-0.265392 1.04159,-1.68186 -0.0233,-2.086733 C 34.964224,42.486195 35.246493,41.28 36.402054,41.28 c 0.444071,0 0.992282,-0.252 1.218253,-0.56 0.340317,-0.463862 0.324125,-0.656138 -0.09432,-1.12 -0.4616,-0.511702 -0.455014,-0.615421 0.07637,-1.202592 0.533882,-0.589933 0.627543,-0.600954 1.142976,-0.134493 0.788173,0.713287 2.021027,0.07929 1.715815,-0.882355 -0.12888,-0.406058 -0.04236,-0.766445 0.22462,-0.93561 0.727284,-0.460828 1.114234,-0.322873 1.505975,0.5369 0.477235,1.047417 1.756992,0.97919 1.910525,-0.10185 0.183555,-1.292432 1.817744,-0.820333 1.817744,0.525123 0,1.108832 0.917728,1.597123 1.689328,0.898835 0.573619,-0.51912 0.634534,-0.518384 1.114304,0.01344 0.436934,0.484352 0.445881,0.646621 0.06434,1.166797 -0.600272,0.818384 -0.08688,1.723498 1.051907,1.854528 1.113245,0.12809 1.429632,1.364765 0.416912,1.629597 -0.903494,0.236269 -0.902118,1.710678 0.0019,1.99759 1.050054,0.333277 0.70225,1.59408 -0.439744,1.59408 -1.222992,0 -1.756589,0.944874 -1.003523,1.777005 0.451817,0.499251 0.479174,0.699872 0.149593,1.096992 -0.508227,0.612375 -1.095516,0.619872 -1.593088,0.02032 -0.615555,-0.741699 -1.685801,0.06882 -1.531312,1.15969 0.09799,0.691942 -0.02403,0.881731 -0.642928,1.000041 -0.582339,0.111322 -0.832553,-0.0346 -1.052844,-0.614019 -0.408436,-1.074259 -1.763239,-1.047677 -2.036215,0.03996 -0.110435,0.44 -0.306045,0.783296 -0.434691,0.76288 -0.128646,-0.02042 -0.489587,-0.103684 -0.80209,-0.18504 z m 4.225959,-3.446346 C 46.787962,47.297462 47.68,45.888611 47.68,44.093219 47.68,41.223709 45.821088,39.36 42.95896,39.36 c -1.560646,0 -3.154189,1.02649 -3.966445,2.555008 -0.781008,1.469718 -0.740854,2.767885 0.132749,4.29168 1.231677,2.148371 3.912243,3.030211 5.972509,1.964806 z M 25.862256,42.818915 C 25.72048,41.84687 23.848949,41.34791 23.051533,42.069562 c -0.817047,0.739417 -1.713492,0.300236 -1.458766,-0.714669 0.291082,-1.159763 -0.933707,-2.405072 -2.111104,-2.146474 -0.694851,0.152615 -0.909141,0.05515 -1.082983,-0.492579 -0.145955,-0.459862 -0.042,-0.810605 0.318352,-1.074099 0.781328,-0.571322 0.239605,-2.561709 -0.735946,-2.703997 C 16.936843,34.785437 16.988646,33.28 18.038131,33.28 c 0.6275,0 0.792274,-0.206768 0.956289,-1.2 0.147279,-0.891883 0.06841,-1.296672 -0.307153,-1.5765 -0.326676,-0.2434 -0.430866,-0.611058 -0.294726,-1.04 0.226164,-0.712578 0.6898,-0.829359 1.431006,-0.36044 0.686552,0.434342 2.041705,-1.120137 1.803588,-2.068873 -0.114227,-0.455119 0.01109,-0.880329 0.339845,-1.153177 0.447316,-0.37124 0.583464,-0.337834 0.964987,0.23677 0.398743,0.600539 0.574337,0.634254 1.716113,0.329496 1.014141,-0.270689 1.27192,-0.488232 1.27192,-1.073385 0,-0.569484 0.179217,-0.733891 0.8,-0.733891 0.616854,0 0.8,0.16522 0.8,0.721699 0,0.546216 0.275381,0.807892 1.132547,1.076181 0.994282,0.311205 1.185887,0.278328 1.569462,-0.269302 0.360112,-0.514133 0.554783,-0.560701 1.107453,-0.264922 0.745216,0.398828 0.800016,0.596049 0.359311,1.293106 -0.218731,0.345964 -0.07289,0.715305 0.531608,1.346262 0.692905,0.723236 0.942032,0.811166 1.480995,0.522722 0.518624,-0.277559 0.732342,-0.231375 1.07072,0.231383 0.356051,0.486928 0.341427,0.668035 -0.09268,1.147718 -0.374454,0.413768 -0.457315,0.879406 -0.302928,1.702356 0.174788,0.93169 0.351965,1.132797 0.998013,1.132797 0.624535,0 0.785501,0.163939 0.785501,0.8 0,0.624653 -0.163581,0.8 -0.74631,0.8 -0.579306,0 -0.826141,0.260118 -1.103066,1.162419 -0.314496,1.024717 -0.281213,1.223731 0.28097,1.68 0.557171,0.452199 0.582147,0.59344 0.197734,1.118096 -0.354166,0.483376 -0.566387,0.532874 -1.087952,0.253738 -0.542371,-0.290266 -0.793888,-0.194461 -1.543453,0.587917 -0.748953,0.781737 -0.828732,1.015132 -0.487525,1.426259 0.325917,0.392707 0.327848,0.588109 0.0096,0.971571 -0.511773,0.61665 -0.955617,0.608317 -1.419921,-0.02666 C 29.979105,41.669084 29.603366,41.60038 28.704801,41.768953 27.7311,41.951622 27.52,42.127421 27.52,42.755613 c 0,1.054829 -1.504745,1.112288 -1.657744,0.0633 z m 3.607413,-3.243481 C 30.245351,39.16592 31.312,38.217517 31.84,37.467869 c 1.278339,-1.814973 1.364602,-4.649408 0.198717,-6.529411 -2.625441,-4.233545 -8.670539,-3.985252 -10.932749,0.449047 -2.650373,5.195161 3.194333,10.917033 8.363701,8.187929 z"
     id="path12"
     inkscape:connector-curvature="0"
     clip-path="url(#clipPath18)" />
</svg>
